<svg width="90" height="90" viewBox="0 0 90 90" fill="none" xmlns="http://www.w3.org/2000/svg">
<g clip-path="url(#clip0_115_8)">
<path d="M39.4687 49.4328H50.5313C60.1274 49.4328 67.7778 41.6137 67.7778 32.1862C67.7778 29.1069 67.7778 20.2335 67.7778 17.2498C67.7778 7.73833 60.0408 0 50.5313 0C37.0507 0 42.2847 0 39.4687 0C29.9588 0 22.2221 7.73833 22.2221 17.2498C22.2221 20.3673 22.2221 28.6749 22.2221 32.1862C22.2221 41.6027 29.8564 49.4328 39.4687 49.4328ZM50.5313 4.84635C56.8745 4.84635 62.9315 9.70208 62.9315 17.883H57.3517C49.6896 17.883 43.2533 12.3327 42.0821 4.84635H50.5313ZM27.0685 17.2498C27.0685 11.3447 31.2738 6.20786 37.0978 5.07639C36.5318 10.8193 32.4844 15.633 27.0685 17.2753V17.2498ZM27.0685 22.2758C32.5736 21.058 37.1834 17.4417 39.7688 12.6144C43.2944 18.7085 49.8793 22.7294 57.3517 22.7294H62.9315V32.1862C62.9315 38.9808 57.4141 44.5864 50.5313 44.5864H39.4687C32.5642 44.5864 27.0685 38.964 27.0685 32.1862V22.2758Z" fill="black"/>
<path d="M54.9605 53.8472C54.9595 53.8469 54.9589 53.8465 54.9579 53.8462C54.957 53.8459 54.9557 53.8456 54.9547 53.8453C48.9058 52.2072 41.0899 52.2075 35.042 53.8462C35.041 53.8465 35.0404 53.8469 35.0394 53.8472C19.8471 57.9508 9.23712 71.8201 9.23712 87.5768C9.23712 88.9151 10.3221 90 11.6603 90C13.1052 90 76.8948 90 78.3396 90C79.6779 90 80.7628 88.9151 80.7628 87.5768C80.7628 71.8129 70.1529 57.9436 54.9605 53.8472ZM34.1742 82.1189L38.0186 85.1537H14.181C15.1561 73.0717 23.3575 62.6537 34.9393 58.9291L38.1996 62.3626L33.3435 79.5584C33.0773 80.5012 33.4049 81.5118 34.1742 82.1189ZM45 84.4897L38.4474 79.3177L43.2385 62.3525C43.4708 61.53 43.2524 60.6453 42.6637 60.0253L40.4861 57.732C43.4207 57.3802 46.5792 57.3799 49.5135 57.7324L47.3362 60.0253C46.7476 60.6453 46.5288 61.5296 46.7615 62.3525L51.5526 79.3177L45 84.4897ZM51.9813 85.1533L55.8254 82.1189C56.5947 81.5118 56.9223 80.5012 56.6561 79.5584L51.8001 62.3626C54.3156 59.7132 53.5699 60.4986 55.0607 58.9284C66.6428 62.6475 74.8445 73.0652 75.8186 85.1533H51.9813Z" fill="black"/>
</g>
<defs>
<clipPath id="clip0_115_8">
<rect width="90" height="90" fill="white"/>
</clipPath>
</defs>
</svg>
